<svg xmlns="http://www.w3.org/2000/svg" xmlns:xlink="http://www.w3.org/1999/xlink" width="900" zoomAndPan="magnify" viewBox="0 0 675 149.999998" height="200" preserveAspectRatio="xMidYMid meet" version="1.0"><defs><g><g id="id1"/></g></defs><g fill="rgb(0%, 0%, 0%)" fill-opacity="1"><g transform="translate(11.355474, 101.851834)"><g><path d="M 25.328125 0.546875 C 18.878906 0.546875 13.582031 -0.984375 9.4375 -4.046875 C 5.289062 -7.117188 3.0625 -11.507812 2.75 -17.21875 L 19.1875 -17.21875 C 19.34375 -15.28125 19.921875 -13.863281 20.921875 -12.96875 C 21.921875 -12.082031 23.207031 -11.640625 24.78125 -11.640625 C 26.195312 -11.640625 27.363281 -11.992188 28.28125 -12.703125 C 29.195312 -13.410156 29.65625 -14.394531 29.65625 -15.65625 C 29.65625 -17.28125 28.894531 -18.535156 27.375 -19.421875 C 25.851562 -20.316406 23.390625 -21.316406 19.984375 -22.421875 C 16.359375 -23.617188 13.429688 -24.78125 11.203125 -25.90625 C 8.972656 -27.039062 7.03125 -28.695312 5.375 -30.875 C 3.726562 -33.050781 2.90625 -35.894531 2.90625 -39.40625 C 2.90625 -42.96875 3.796875 -46.019531 5.578125 -48.5625 C 7.367188 -51.113281 9.835938 -53.039062 12.984375 -54.34375 C 16.128906 -55.65625 19.691406 -56.3125 23.671875 -56.3125 C 30.117188 -56.3125 35.269531 -54.800781 39.125 -51.78125 C 42.976562 -48.769531 45.039062 -44.539062 45.3125 -39.09375 L 28.546875 -39.09375 C 28.492188 -40.769531 27.984375 -42.023438 27.015625 -42.859375 C 26.046875 -43.703125 24.800781 -44.125 23.28125 -44.125 C 22.125 -44.125 21.175781 -43.78125 20.4375 -43.09375 C 19.707031 -42.414062 19.34375 -41.445312 19.34375 -40.1875 C 19.34375 -39.144531 19.75 -38.242188 20.5625 -37.484375 C 21.375 -36.722656 22.382812 -36.066406 23.59375 -35.515625 C 24.800781 -34.960938 26.585938 -34.265625 28.953125 -33.421875 C 32.460938 -32.222656 35.359375 -31.03125 37.640625 -29.84375 C 39.921875 -28.664062 41.882812 -27.015625 43.53125 -24.890625 C 45.1875 -22.765625 46.015625 -20.078125 46.015625 -16.828125 C 46.015625 -13.523438 45.1875 -10.5625 43.53125 -7.9375 C 41.882812 -5.320312 39.5 -3.253906 36.375 -1.734375 C 33.257812 -0.210938 29.578125 0.546875 25.328125 0.546875 Z M 25.328125 0.546875 "/></g></g></g><g fill="rgb(0%, 0%, 0%)" fill-opacity="1"><g transform="translate(60.122385, 101.851834)"><g><path d="M 1.890625 -22.109375 C 1.890625 -26.671875 2.710938 -30.65625 4.359375 -34.0625 C 6.015625 -37.46875 8.269531 -40.085938 11.125 -41.921875 C 13.988281 -43.753906 17.175781 -44.671875 20.6875 -44.671875 C 23.726562 -44.671875 26.347656 -44.066406 28.546875 -42.859375 C 30.753906 -41.660156 32.460938 -40.035156 33.671875 -37.984375 L 33.671875 -44.125 L 49.078125 -44.125 L 49.078125 0 L 33.671875 0 L 33.671875 -6.140625 C 32.460938 -4.085938 30.742188 -2.457031 28.515625 -1.25 C 26.285156 -0.0507812 23.675781 0.546875 20.6875 0.546875 C 17.175781 0.546875 13.988281 -0.367188 11.125 -2.203125 C 8.269531 -4.035156 6.015625 -6.671875 4.359375 -10.109375 C 2.710938 -13.546875 1.890625 -17.546875 1.890625 -22.109375 Z M 33.671875 -22.109375 C 33.671875 -24.929688 32.894531 -27.15625 31.34375 -28.78125 C 29.800781 -30.40625 27.898438 -31.21875 25.640625 -31.21875 C 23.335938 -31.21875 21.425781 -30.414062 19.90625 -28.8125 C 18.382812 -27.21875 17.625 -24.984375 17.625 -22.109375 C 17.625 -19.273438 18.382812 -17.03125 19.90625 -15.375 C 21.425781 -13.726562 23.335938 -12.90625 25.640625 -12.90625 C 27.898438 -12.90625 29.800781 -13.71875 31.34375 -15.34375 C 32.894531 -16.96875 33.671875 -19.222656 33.671875 -22.109375 Z M 33.671875 -22.109375 "/></g></g></g><g fill="rgb(0%, 0%, 0%)" fill-opacity="1"><g transform="translate(113.608679, 101.851834)"><g><path d="M 33.421875 -44.515625 C 38.460938 -44.515625 42.460938 -42.820312 45.421875 -39.4375 C 48.390625 -36.0625 49.875 -31.488281 49.875 -25.71875 L 49.875 0 L 34.453125 0 L 34.453125 -23.671875 C 34.453125 -26.191406 33.796875 -28.171875 32.484375 -29.609375 C 31.171875 -31.054688 29.414062 -31.78125 27.21875 -31.78125 C 24.90625 -31.78125 23.09375 -31.054688 21.78125 -29.609375 C 20.476562 -28.171875 19.828125 -26.191406 19.828125 -23.671875 L 19.828125 0 L 4.40625 0 L 4.40625 -58.203125 L 19.828125 -58.203125 L 19.828125 -37.828125 C 21.179688 -39.828125 23.023438 -41.441406 25.359375 -42.671875 C 27.691406 -43.898438 30.378906 -44.515625 33.421875 -44.515625 Z M 33.421875 -44.515625 "/></g></g></g><g fill="rgb(0%, 0%, 0%)" fill-opacity="1"><g transform="translate(167.566905, 101.851834)"><g><path d="M 1.890625 -22.109375 C 1.890625 -26.671875 2.710938 -30.65625 4.359375 -34.0625 C 6.015625 -37.46875 8.269531 -40.085938 11.125 -41.921875 C 13.988281 -43.753906 17.175781 -44.671875 20.6875 -44.671875 C 23.726562 -44.671875 26.347656 -44.066406 28.546875 -42.859375 C 30.753906 -41.660156 32.460938 -40.035156 33.671875 -37.984375 L 33.671875 -44.125 L 49.078125 -44.125 L 49.078125 0 L 33.671875 0 L 33.671875 -6.140625 C 32.460938 -4.085938 30.742188 -2.457031 28.515625 -1.25 C 26.285156 -0.0507812 23.675781 0.546875 20.6875 0.546875 C 17.175781 0.546875 13.988281 -0.367188 11.125 -2.203125 C 8.269531 -4.035156 6.015625 -6.671875 4.359375 -10.109375 C 2.710938 -13.546875 1.890625 -17.546875 1.890625 -22.109375 Z M 33.671875 -22.109375 C 33.671875 -24.929688 32.894531 -27.15625 31.34375 -28.78125 C 29.800781 -30.40625 27.898438 -31.21875 25.640625 -31.21875 C 23.335938 -31.21875 21.425781 -30.414062 19.90625 -28.8125 C 18.382812 -27.21875 17.625 -24.984375 17.625 -22.109375 C 17.625 -19.273438 18.382812 -17.03125 19.90625 -15.375 C 21.425781 -13.726562 23.335938 -12.90625 25.640625 -12.90625 C 27.898438 -12.90625 29.800781 -13.71875 31.34375 -15.34375 C 32.894531 -16.96875 33.671875 -19.222656 33.671875 -22.109375 Z M 33.671875 -22.109375 "/></g></g></g><g fill="rgb(0%, 0%, 0%)" fill-opacity="1"><g transform="translate(221.053199, 101.851834)"><g><path d="M 51.90625 -44.125 L 23.90625 21 L 7.15625 21 L 17.703125 -1.890625 L -0.390625 -44.125 L 16.75 -44.125 L 26.03125 -19.109375 L 35 -44.125 Z M 51.90625 -44.125 "/></g></g></g><g fill="rgb(0%, 0%, 0%)" fill-opacity="1"><g transform="translate(272.573078, 101.851834)"><g><path d="M 1.890625 -22.109375 C 1.890625 -26.671875 2.710938 -30.65625 4.359375 -34.0625 C 6.015625 -37.46875 8.269531 -40.085938 11.125 -41.921875 C 13.988281 -43.753906 17.175781 -44.671875 20.6875 -44.671875 C 23.726562 -44.671875 26.347656 -44.066406 28.546875 -42.859375 C 30.753906 -41.660156 32.460938 -40.035156 33.671875 -37.984375 L 33.671875 -44.125 L 49.078125 -44.125 L 49.078125 0 L 33.671875 0 L 33.671875 -6.140625 C 32.460938 -4.085938 30.742188 -2.457031 28.515625 -1.25 C 26.285156 -0.0507812 23.675781 0.546875 20.6875 0.546875 C 17.175781 0.546875 13.988281 -0.367188 11.125 -2.203125 C 8.269531 -4.035156 6.015625 -6.671875 4.359375 -10.109375 C 2.710938 -13.546875 1.890625 -17.546875 1.890625 -22.109375 Z M 33.671875 -22.109375 C 33.671875 -24.929688 32.894531 -27.15625 31.34375 -28.78125 C 29.800781 -30.40625 27.898438 -31.21875 25.640625 -31.21875 C 23.335938 -31.21875 21.425781 -30.414062 19.90625 -28.8125 C 18.382812 -27.21875 17.625 -24.984375 17.625 -22.109375 C 17.625 -19.273438 18.382812 -17.03125 19.90625 -15.375 C 21.425781 -13.726562 23.335938 -12.90625 25.640625 -12.90625 C 27.898438 -12.90625 29.800781 -13.71875 31.34375 -15.34375 C 32.894531 -16.96875 33.671875 -19.222656 33.671875 -22.109375 Z M 33.671875 -22.109375 "/></g></g></g><g fill="rgb(0%, 0%, 0%)" fill-opacity="1"><g transform="translate(326.059372, 101.851834)"><g><path d="M 32.015625 0 L 19.828125 -18.09375 L 19.828125 0 L 4.40625 0 L 4.40625 -58.203125 L 19.828125 -58.203125 L 19.828125 -26.828125 L 32.015625 -44.125 L 50.5 -44.125 L 33.109375 -21.9375 L 50.8125 0 Z M 32.015625 0 "/></g></g></g><g fill="rgb(0%, 0%, 0%)" fill-opacity="1"><g transform="translate(376.950009, 101.851834)"><g/></g></g><g fill="rgb(19.999695%, 60.389709%, 94.119263%)" fill-opacity="1"><g transform="translate(391.968733, 101.851834)"><g><path d="M 54.03125 -55.453125 L 54.03125 0 L 38.625 0 L 38.625 -22.265625 L 19.828125 -22.265625 L 19.828125 0 L 4.40625 0 L 4.40625 -55.453125 L 19.828125 -55.453125 L 19.828125 -34.609375 L 38.625 -34.609375 L 38.625 -55.453125 Z M 54.03125 -55.453125 "/></g></g></g><g fill="rgb(19.999695%, 60.389709%, 94.119263%)" fill-opacity="1"><g transform="translate(450.410376, 101.851834)"><g><path d="M 46.5625 -22.578125 C 46.5625 -21.367188 46.484375 -20.160156 46.328125 -18.953125 L 17.140625 -18.953125 C 17.304688 -16.546875 17.976562 -14.75 19.15625 -13.5625 C 20.332031 -12.382812 21.835938 -11.796875 23.671875 -11.796875 C 26.242188 -11.796875 28.082031 -12.953125 29.1875 -15.265625 L 45.625 -15.265625 C 44.9375 -12.222656 43.609375 -9.507812 41.640625 -7.125 C 39.679688 -4.738281 37.207031 -2.863281 34.21875 -1.5 C 31.226562 -0.132812 27.925781 0.546875 24.3125 0.546875 C 19.957031 0.546875 16.085938 -0.367188 12.703125 -2.203125 C 9.316406 -4.035156 6.664062 -6.65625 4.75 -10.0625 C 2.84375 -13.476562 1.890625 -17.492188 1.890625 -22.109375 C 1.890625 -26.722656 2.832031 -30.71875 4.71875 -34.09375 C 6.601562 -37.476562 9.238281 -40.085938 12.625 -41.921875 C 16.007812 -43.753906 19.90625 -44.671875 24.3125 -44.671875 C 28.65625 -44.671875 32.503906 -43.78125 35.859375 -42 C 39.222656 -40.21875 41.847656 -37.660156 43.734375 -34.328125 C 45.617188 -31.003906 46.5625 -27.085938 46.5625 -22.578125 Z M 30.828125 -26.421875 C 30.828125 -28.316406 30.195312 -29.800781 28.9375 -30.875 C 27.6875 -31.945312 26.113281 -32.484375 24.21875 -32.484375 C 22.332031 -32.484375 20.785156 -31.972656 19.578125 -30.953125 C 18.378906 -29.929688 17.59375 -28.421875 17.21875 -26.421875 Z M 30.828125 -26.421875 "/></g></g></g><g fill="rgb(19.999695%, 60.389709%, 94.119263%)" fill-opacity="1"><g transform="translate(498.862666, 101.851834)"><g><path d="M 1.890625 -22.109375 C 1.890625 -26.671875 2.710938 -30.65625 4.359375 -34.0625 C 6.015625 -37.46875 8.269531 -40.085938 11.125 -41.921875 C 13.988281 -43.753906 17.175781 -44.671875 20.6875 -44.671875 C 23.726562 -44.671875 26.347656 -44.066406 28.546875 -42.859375 C 30.753906 -41.660156 32.460938 -40.035156 33.671875 -37.984375 L 33.671875 -44.125 L 49.078125 -44.125 L 49.078125 0 L 33.671875 0 L 33.671875 -6.140625 C 32.460938 -4.085938 30.742188 -2.457031 28.515625 -1.25 C 26.285156 -0.0507812 23.675781 0.546875 20.6875 0.546875 C 17.175781 0.546875 13.988281 -0.367188 11.125 -2.203125 C 8.269531 -4.035156 6.015625 -6.671875 4.359375 -10.109375 C 2.710938 -13.546875 1.890625 -17.546875 1.890625 -22.109375 Z M 33.671875 -22.109375 C 33.671875 -24.929688 32.894531 -27.15625 31.34375 -28.78125 C 29.800781 -30.40625 27.898438 -31.21875 25.640625 -31.21875 C 23.335938 -31.21875 21.425781 -30.414062 19.90625 -28.8125 C 18.382812 -27.21875 17.625 -24.984375 17.625 -22.109375 C 17.625 -19.273438 18.382812 -17.03125 19.90625 -15.375 C 21.425781 -13.726562 23.335938 -12.90625 25.640625 -12.90625 C 27.898438 -12.90625 29.800781 -13.71875 31.34375 -15.34375 C 32.894531 -16.96875 33.671875 -19.222656 33.671875 -22.109375 Z M 33.671875 -22.109375 "/></g></g></g><g fill="rgb(19.999695%, 60.389709%, 94.119263%)" fill-opacity="1"><g transform="translate(552.34896, 101.851834)"><g><path d="M 19.828125 -58.203125 L 19.828125 0 L 4.40625 0 L 4.40625 -58.203125 Z M 19.828125 -58.203125 "/></g></g></g><g fill="rgb(19.999695%, 60.389709%, 94.119263%)" fill-opacity="1"><g transform="translate(576.575106, 101.851834)"><g><path d="M 30.4375 -13.140625 L 30.4375 0 L 23.75 0 C 12.476562 0 6.84375 -5.582031 6.84375 -16.75 L 6.84375 -31.3125 L 1.421875 -31.3125 L 1.421875 -44.125 L 6.84375 -44.125 L 6.84375 -54.828125 L 22.34375 -54.828125 L 22.34375 -44.125 L 30.359375 -44.125 L 30.359375 -31.3125 L 22.34375 -31.3125 L 22.34375 -16.515625 C 22.34375 -15.304688 22.613281 -14.441406 23.15625 -13.921875 C 23.707031 -13.398438 24.640625 -13.140625 25.953125 -13.140625 Z M 30.4375 -13.140625 "/></g></g></g><g fill="rgb(19.999695%, 60.389709%, 94.119263%)" fill-opacity="1"><g transform="translate(609.689408, 101.851834)"><g><path d="M 33.421875 -44.515625 C 38.460938 -44.515625 42.460938 -42.820312 45.421875 -39.4375 C 48.390625 -36.0625 49.875 -31.488281 49.875 -25.71875 L 49.875 0 L 34.453125 0 L 34.453125 -23.671875 C 34.453125 -26.191406 33.796875 -28.171875 32.484375 -29.609375 C 31.171875 -31.054688 29.414062 -31.78125 27.21875 -31.78125 C 24.90625 -31.78125 23.09375 -31.054688 21.78125 -29.609375 C 20.476562 -28.171875 19.828125 -26.191406 19.828125 -23.671875 L 19.828125 0 L 4.40625 0 L 4.40625 -58.203125 L 19.828125 -58.203125 L 19.828125 -37.828125 C 21.179688 -39.828125 23.023438 -41.441406 25.359375 -42.671875 C 27.691406 -43.898438 30.378906 -44.515625 33.421875 -44.515625 Z M 33.421875 -44.515625 "/></g></g></g></svg>