<svg xmlns="http://www.w3.org/2000/svg" width="1440" viewBox="0 0 1440 810" height="810" version="1.0"><g fill="#FFF"><g><g><path d="M 49.515625 -91.28125 C 46.140625 -91.28125 43.367188 -90.382812 41.203125 -88.59375 C 39.046875 -86.800781 37.96875 -84.21875 37.96875 -80.84375 C 37.96875 -77.46875 38.96875 -74.75 40.96875 -72.6875 C 42.976562 -70.632812 45.585938 -69.050781 48.796875 -67.9375 C 52.015625 -66.832031 55.601562 -65.78125 59.5625 -64.78125 C 63.519531 -63.78125 67.445312 -62.566406 71.34375 -61.140625 C 75.25 -59.722656 78.8125 -57.957031 82.03125 -55.84375 C 85.25 -53.738281 87.859375 -50.757812 89.859375 -46.90625 C 91.859375 -43.0625 92.859375 -38.445312 92.859375 -33.0625 C 92.859375 -23.675781 89.035156 -15.632812 81.390625 -8.9375 C 73.742188 -2.238281 63.671875 1.109375 51.171875 1.109375 C 38.679688 1.109375 28.613281 -1.894531 20.96875 -7.90625 C 13.320312 -13.914062 9.5 -22.460938 9.5 -33.546875 L 38.28125 -33.546875 C 39.019531 -24.679688 43.554688 -20.25 51.890625 -20.25 C 55.796875 -20.25 58.851562 -21.273438 61.0625 -23.328125 C 63.28125 -25.390625 64.390625 -28 64.390625 -31.15625 C 64.390625 -34.320312 63.382812 -36.90625 61.375 -38.90625 C 59.375 -40.914062 56.765625 -42.5 53.546875 -43.65625 C 50.335938 -44.820312 46.753906 -45.90625 42.796875 -46.90625 C 38.835938 -47.90625 34.90625 -49.144531 31 -50.625 C 27.101562 -52.101562 23.546875 -53.867188 20.328125 -55.921875 C 17.109375 -57.984375 14.5 -60.9375 12.5 -64.78125 C 10.5 -68.632812 9.5 -73.195312 9.5 -78.46875 C 9.5 -88.800781 13.347656 -97.078125 21.046875 -103.296875 C 28.742188 -109.523438 38.578125 -112.640625 50.546875 -112.640625 C 62.515625 -112.640625 72.191406 -109.921875 79.578125 -104.484375 C 86.960938 -99.054688 90.8125 -90.488281 91.125 -78.78125 L 61.703125 -78.78125 C 61.273438 -82.789062 59.976562 -85.875 57.8125 -88.03125 C 55.65625 -90.195312 52.890625 -91.28125 49.515625 -91.28125 Z M 49.515625 -91.28125" transform="translate(42.627 425.804)"/></g></g></g><g fill="#FFF"><g><g><path d="M 65.65625 -28 C 69.5625 -31.800781 71.515625 -37.179688 71.515625 -44.140625 C 71.515625 -51.097656 69.5625 -56.445312 65.65625 -60.1875 C 61.75 -63.9375 57.265625 -65.8125 52.203125 -65.8125 C 47.140625 -65.8125 42.65625 -63.910156 38.75 -60.109375 C 34.851562 -56.316406 32.90625 -50.941406 32.90625 -43.984375 C 32.90625 -37.023438 34.851562 -31.671875 38.75 -27.921875 C 42.65625 -24.179688 47.140625 -22.3125 52.203125 -22.3125 C 57.265625 -22.3125 61.75 -24.207031 65.65625 -28 Z M 17.078125 -11.546875 C 9.273438 -19.984375 5.375 -30.789062 5.375 -43.96875 C 5.375 -57.15625 9.273438 -67.992188 17.078125 -76.484375 C 24.890625 -84.984375 34.410156 -89.234375 45.640625 -89.234375 C 56.867188 -89.234375 65.492188 -85.066406 71.515625 -76.734375 L 71.515625 -88.28125 L 98.5625 -88.28125 L 98.5625 0 L 71.515625 0 L 71.515625 -12.8125 C 64.972656 -3.53125 56.21875 1.109375 45.25 1.109375 C 34.28125 1.109375 24.890625 -3.109375 17.078125 -11.546875 Z M 17.078125 -11.546875" transform="translate(144.977 425.804)"/></g></g></g><g fill="#FFF"><g><g><path d="M 38.921875 -117.078125 L 38.921875 -75.3125 C 44.503906 -84.59375 53.414062 -89.234375 65.65625 -89.234375 C 75.78125 -89.234375 83.976562 -85.859375 90.25 -79.109375 C 96.53125 -72.359375 99.671875 -63.179688 99.671875 -51.578125 L 99.671875 0 L 72.78125 0 L 72.78125 -47.9375 C 72.78125 -53.632812 71.273438 -58.035156 68.265625 -61.140625 C 65.253906 -64.253906 61.113281 -65.8125 55.84375 -65.8125 C 50.570312 -65.8125 46.429688 -64.253906 43.421875 -61.140625 C 40.421875 -58.035156 38.921875 -53.632812 38.921875 -47.9375 L 38.921875 0 L 11.859375 0 L 11.859375 -117.078125 Z M 38.921875 -117.078125" transform="translate(255.394 425.804)"/></g></g></g><g fill="#FFF"><g><g><path d="M 34.96875 -1.734375 L 0.640625 -88.28125 L 31.328125 -88.28125 L 50.9375 -30.53125 L 72.453125 -88.28125 L 100.78125 -88.28125 L 44.453125 42.078125 L 16.140625 42.078125 Z M 34.96875 -1.734375" transform="translate(476.546 425.804)"/></g></g></g><g fill="#FFF"><g><g><path d="M 38.921875 0 L 11.859375 0 L 11.859375 -117.078125 L 38.921875 -117.078125 L 38.921875 -51.421875 L 66.28125 -88.28125 L 102.671875 -88.28125 L 64.859375 -43.1875 L 102.671875 0 L 66.765625 0 L 38.921875 -35.28125 Z M 38.921875 0" transform="translate(688.364 425.804)"/></g></g></g><g fill="#339AF0"><g><g><path d="M 81.796875 -111.0625 L 108.84375 -111.0625 L 108.84375 0 L 81.796875 0 L 81.796875 -46.03125 L 38.921875 -46.03125 L 38.921875 0 L 11.859375 0 L 11.859375 -111.0625 L 38.921875 -111.0625 L 38.921875 -66.609375 L 81.796875 -66.609375 Z M 81.796875 -111.0625" transform="translate(839.115 425.804)"/></g></g></g><g fill="#339AF0"><g><g><path d="M 49.359375 1.109375 C 36.492188 1.109375 25.945312 -3.03125 17.71875 -11.3125 C 9.488281 -19.59375 5.375 -30.585938 5.375 -44.296875 C 5.375 -58.003906 9.460938 -68.921875 17.640625 -77.046875 C 25.816406 -85.171875 36.390625 -89.234375 49.359375 -89.234375 C 62.328125 -89.234375 73.082031 -85.222656 81.625 -77.203125 C 90.175781 -69.191406 94.453125 -58.066406 94.453125 -43.828125 C 94.453125 -40.765625 94.238281 -37.914062 93.8125 -35.28125 L 33.0625 -35.28125 C 33.59375 -31.375 35.332031 -28.179688 38.28125 -25.703125 C 41.238281 -23.222656 44.429688 -21.984375 47.859375 -21.984375 C 51.285156 -21.984375 53.84375 -22.328125 55.53125 -23.015625 C 57.21875 -23.703125 58.457031 -24.390625 59.25 -25.078125 C 60.039062 -25.765625 61.066406 -26.898438 62.328125 -28.484375 L 91.59375 -28.484375 C 89.0625 -19.617188 84 -12.46875 76.40625 -7.03125 C 68.8125 -1.601562 59.796875 1.109375 49.359375 1.109375 Z M 66.28125 -52.203125 C 65.863281 -56.316406 64.070312 -59.664062 60.90625 -62.25 C 57.738281 -64.832031 53.992188 -66.125 49.671875 -66.125 C 45.347656 -66.125 41.707031 -64.832031 38.75 -62.25 C 35.800781 -59.664062 33.957031 -56.316406 33.21875 -52.203125 Z M 66.28125 -52.203125" transform="translate(959.815 425.804)"/></g></g></g><g fill="#339AF0"><g><g><path d="M 11.859375 0 L 11.859375 -117.078125 L 38.921875 -117.078125 L 38.921875 0 Z M 11.859375 0" transform="translate(1170.21 425.804)"/></g></g></g><g fill="#339AF0"><g><g><path d="M 49.359375 -22.9375 L 59.015625 -22.9375 L 59.015625 0 L 45.25 0 C 35.332031 0 27.65625 -2.1875 22.21875 -6.5625 C 16.789062 -10.9375 14.078125 -18.453125 14.078125 -29.109375 L 14.078125 -65.8125 L 5.859375 -65.8125 L 5.859375 -88.28125 L 14.078125 -88.28125 L 14.078125 -109.796875 L 41.140625 -109.796875 L 41.140625 -88.28125 L 58.859375 -88.28125 L 58.859375 -65.8125 L 41.140625 -65.8125 L 41.140625 -29.109375 C 41.140625 -24.992188 43.878906 -22.9375 49.359375 -22.9375 Z M 49.359375 -22.9375" transform="translate(1220.989 425.804)"/></g></g></g></svg>